# xmcd CD database file
#
# Track frame offsets:
#	150
#	18960
#	37865
#	49410
#	65807
#	78805
#	89246
#	103354
#	116344
#	131955
#	151831
#	167476
#	181025
#	199332
#	227583
#	252425
#	268285
#	281813
#	292271
#	303112
#	315695
#
# Disc length: 4418 seconds
#
# Revision: 2
# Processed by: cddbd v1.5.2PL0 Copyright (c) Steve Scherf et al.
# Submitted via: CDex 1.51
#
DISCID=35114015
DTITLE=Various Artist - Saturn Barjazz 2 Edition CD2
DYEAR=2004
DGENRE=Jazz
TTITLE0=Charlie Hunter Feat. Norah Jones - More Than This
TTITLE1=The Holly Cole Trio - I Can See Clearly Now
TTITLE2=Crystal Gayle - Don´t It Makes My Brown Eyes Blue
TTITLE3=Lou Rawls Feat. Dianne Reeves - At Last
TTITLE4=Bettye Swann - Tell It Like It Is
TTITLE5=Dinah Washington - Call Me Irresponsible
TTITLE6=Nancy Wilson - For Once In My Life
TTITLE7=Julie London - Around Midnight
TTITLE8=Sarah Vaughan - Stormy Weather
TTITLE9=Dinah Shore - Somebody Loves Me
TTITLE10=Lena Horne - Moon River
TTITLE11=Keely Smith - Someone To Watch Over Me
TTITLE12=Nina Simone - I Love You Porgy
TTITLE13=Dianne Reeves - You Taught My Heard To Sing
TTITLE14=Joe Henderson and Pete La Roca - Lazy Afternoon
TTITLE15=Miles Davis - I Waited For You
TTITLE16=Stan Getz - These Foolish Thinks (Remind Me Of You)
TTITLE17=Chet Baker - My Funny Valentine
TTITLE18=Bud Shank With The Len Mercer Strings - Smoke Gets In Your Eyes
TTITLE19=Coleman Hawkins - Autumn Leaves
TTITLE20=Nat King Cole And George Shearing - Fly Me To The Moon (In Other Words)
EXTD=YEAR: 2004
EXTT0=
EXTT1=
EXTT2=
EXTT3=
EXTT4=
EXTT5=
EXTT6=
EXTT7=
EXTT8=
EXTT9=
EXTT10=
EXTT11=
EXTT12=
EXTT13=
EXTT14=
EXTT15=
EXTT16=
EXTT17=
EXTT18=
EXTT19=
EXTT20=
PLAYORDER=
